# xmcd
#
# Track frame offsets:
# 210
# 15416
# 29402
# 43335
# 56006
# 68947
# 80695
# 94871
# 109630
# 123036
# 134486
# 148574
# 161057
# 174166
# 186200
# 198601
# 209877
# 224180
# 239011
# 251054
# 263532
# 275876
#
# Disc length: 3864 seconds
#
#
# Revision: 0
# Processed by: cddbd v1.5.1PL0 Copyright (c) Steve Scherf et al.
# Submitted via: FreeRIP 2.35 
#
DISCID=5e0f1616
DTITLE=Arthur "Big Boy" Crudup - His 22 Greatest Songs
DYEAR=1900
DGENRE=Blues
TTITLE0=Black Pony Blues
TTITLE1=Kind Lover Blues
TTITLE2=If I Get Lucky
TTITLE3=Standing At My Window
TTITLE4=Give Me A 32-20
TTITLE5=Mean Old 'Frisco Blues
TTITLE6=Cool Disposition
TTITLE7=Who's Been Foolin' You
TTITLE8=Rock Me Mama
TTITLE9=Keep Your Arms Around Me
TTITLE10=Ethel Mae
TTITLE11=So Glad You're Mine
TTITLE12=That's All Right
TTITLE13=Dust My Broom
TTITLE14=Hand Me Down My Walking Cane
TTITLE15=My Baby Left Me
TTITLE16=Love Me Mama
TTITLE17=I'm Gonna Dig Myself A Hole
TTITLE18=Mr. So And So
TTITLE19=Tears In My Eyes
TTITLE20=Gonna Find My Baby
TTITLE21=Make A Little Love
EXTD="Father of Rock and Roll"
EXTT0=
EXTT1=
EXTT2=
EXTT3=
EXTT4=
EXTT5=
EXTT6=
EXTT7=
EXTT8=
EXTT9=
EXTT10=
EXTT11=
EXTT12=
EXTT13=
EXTT14=
EXTT15=
EXTT16=
EXTT17=
EXTT18=
EXTT19=
EXTT20=
EXTT21=
PLAYORDER=
